<svg width="25" height="25" viewBox="0 0 25 25" fill="none" xmlns="http://www.w3.org/2000/svg">
<path d="M6.49414 2.75244L3.49414 6.75244V20.7524C3.49414 21.2829 3.70485 21.7916 4.07993 22.1667C4.455 22.5417 4.96371 22.7524 5.49414 22.7524H19.4941C20.0246 22.7524 20.5333 22.5417 20.9084 22.1667C21.2834 21.7916 21.4941 21.2829 21.4941 20.7524V6.75244L18.4941 2.75244H6.49414Z" stroke="black" stroke-width="2" stroke-linecap="round" stroke-linejoin="round"/>
<path d="M3.49414 6.75244H21.4941" stroke="black" stroke-width="2" stroke-linecap="round" stroke-linejoin="round"/>
<path d="M16.4941 10.7524C16.4941 11.8133 16.0727 12.8307 15.3226 13.5809C14.5724 14.331 13.555 14.7524 12.4941 14.7524C11.4333 14.7524 10.4159 14.331 9.66571 13.5809C8.91557 12.8307 8.49414 11.8133 8.49414 10.7524" stroke="black" stroke-width="2" stroke-linecap="round" stroke-linejoin="round"/>
</svg>
