<svg width="25" height="25" viewBox="0 0 25 25" fill="none" xmlns="http://www.w3.org/2000/svg">
<path d="M21.3684 5.27149C20.8577 4.7605 20.2513 4.35514 19.5838 4.07858C18.9163 3.80202 18.2009 3.65967 17.4784 3.65967C16.756 3.65967 16.0405 3.80202 15.3731 4.07858C14.7056 4.35514 14.0992 4.7605 13.5884 5.27149L12.5284 6.33149L11.4684 5.27149C10.4367 4.2398 9.03747 3.6602 7.57844 3.6602C6.11941 3.6602 4.72013 4.2398 3.68844 5.27149C2.65675 6.30319 2.07715 7.70246 2.07715 9.16149C2.07715 10.6205 2.65675 12.0198 3.68844 13.0515L4.74844 14.1115L12.5284 21.8915L20.3084 14.1115L21.3684 13.0515C21.8794 12.5407 22.2848 11.9343 22.5614 11.2668C22.8379 10.5994 22.9803 9.88398 22.9803 9.16149C22.9803 8.43901 22.8379 7.7236 22.5614 7.05614C22.2848 6.38868 21.8794 5.78225 21.3684 5.27149Z" stroke="black" stroke-width="2" stroke-linecap="round" stroke-linejoin="round"/>
</svg>
